<svg width="20" height="24" viewBox="0 0 20 24" fill="none" xmlns="http://www.w3.org/2000/svg">
<path d="M14.4297 5.90625C13.8438 5.90625 13.2969 5.99609 12.7891 6.17578C12.2891 6.35547 11.832 6.53516 11.418 6.71484C11.0039 6.88672 10.6445 6.97266 10.3398 6.97266C10.0195 6.97266 9.66406 6.89062 9.27344 6.72656C8.88281 6.55469 8.46094 6.38672 8.00781 6.22266C7.5625 6.05859 7.08594 5.97656 6.57812 5.97656C5.61719 5.97656 4.69141 6.23828 3.80078 6.76172C2.91016 7.28516 2.17969 8.05859 1.60938 9.08203C1.03906 10.1055 0.753906 11.3672 0.753906 12.8672C0.753906 13.8047 0.863281 14.7422 1.08203 15.6797C1.30078 16.6172 1.59375 17.5039 1.96094 18.3398C2.32812 19.1758 2.73438 19.9141 3.17969 20.5547C3.75781 21.3594 4.32031 22.0508 4.86719 22.6289C5.42188 23.207 6.0625 23.4961 6.78906 23.4961C7.26562 23.4961 7.67969 23.418 8.03125 23.2617C8.38281 23.1055 8.75391 22.9453 9.14453 22.7812C9.54297 22.625 10.0391 22.5469 10.6328 22.5469C11.0859 22.5469 11.4648 22.5938 11.7695 22.6875C12.0742 22.7812 12.3516 22.8867 12.6016 23.0039C12.8594 23.1289 13.1289 23.2383 13.4102 23.332C13.6914 23.4258 14.0312 23.4727 14.4297 23.4727C14.9531 23.4727 15.4219 23.332 15.8359 23.0508C16.2578 22.7773 16.6445 22.4219 16.9961 21.9844C17.3555 21.5469 17.7031 21.0898 18.0391 20.6133C18.4062 20.0742 18.7031 19.5586 18.9297 19.0664C19.1641 18.5664 19.3359 18.1602 19.4453 17.8477C19.5547 17.5273 19.6133 17.3516 19.6211 17.3203C19.5977 17.3125 19.4258 17.2266 19.1055 17.0625C18.793 16.8906 18.4336 16.6211 18.0273 16.2539C17.6289 15.8867 17.2773 15.4062 16.9727 14.8125C16.6758 14.2188 16.5273 13.4922 16.5273 12.6328C16.5273 11.8828 16.6445 11.2383 16.8789 10.6992C17.1211 10.1523 17.4023 9.70312 17.7227 9.35156C18.043 8.99219 18.3281 8.71875 18.5781 8.53125C18.8359 8.34375 18.9844 8.23828 19.0234 8.21484C18.6328 7.65234 18.207 7.21484 17.7461 6.90234C17.2852 6.58984 16.832 6.36328 16.3867 6.22266C15.9414 6.08203 15.543 5.99609 15.1914 5.96484C14.8477 5.92578 14.5938 5.90625 14.4297 5.90625ZM13.6094 4.00781C13.9688 3.57812 14.2617 3.08203 14.4883 2.51953C14.7148 1.94922 14.8281 1.36328 14.8281 0.761719C14.8281 0.589844 14.8164 0.4375 14.793 0.304688C14.207 0.328125 13.5938 0.503906 12.9531 0.832031C12.3203 1.16016 11.7969 1.57031 11.3828 2.0625C11.0469 2.4375 10.75 2.90625 10.4922 3.46875C10.2344 4.03125 10.1055 4.60937 10.1055 5.20312C10.1055 5.29688 10.1094 5.38281 10.1172 5.46094C10.1328 5.53906 10.1445 5.59375 10.1523 5.625C10.2539 5.64844 10.3594 5.66016 10.4688 5.66016C10.9922 5.66016 11.5469 5.50391 12.1328 5.19141C12.7266 4.87891 13.2188 4.48438 13.6094 4.00781Z" fill="#FEFFFE"/>
</svg>
