<svg width="168" height="183" viewBox="0 0 168 183" fill="none" xmlns="http://www.w3.org/2000/svg">
<circle cx="78.9274" cy="76.5548" r="76.5221" fill="#0078FA"/>
<circle cx="10.1067" cy="106.874" r="10.1067" fill="#004794"/>
<line x1="108.418" y1="46.1041" x2="166.387" y2="71.6104" stroke="#03B4FA" stroke-width="2.39261" stroke-linecap="round"/>
<line x1="46.7402" y1="43.626" x2="47.9511" y2="50.8286" stroke="black" stroke-width="1.84047" stroke-linecap="round"/>
<line x1="57.3364" y1="39.8921" x2="58.5473" y2="47.0947" stroke="black" stroke-width="1.84047" stroke-linecap="round"/>
<path d="M48.6414 165.587C47.8033 164.772 46.4633 164.791 45.6485 165.629C44.8336 166.467 44.8525 167.807 45.6906 168.622L48.6414 165.587ZM60.4567 180.026L58.9813 181.544C59.454 182.003 60.114 182.216 60.7662 182.12C61.4184 182.024 61.9885 181.629 62.3081 181.052L60.4567 180.026ZM82.0542 145.413C82.6207 144.391 82.2511 143.103 81.2286 142.536C80.2061 141.97 78.918 142.339 78.3515 143.362L82.0542 145.413ZM93.5547 105.277C92.6734 104.509 91.3364 104.601 90.5686 105.483C89.8007 106.364 89.8928 107.701 90.7742 108.469L93.5547 105.277ZM128.049 138.135L126.659 139.731C127.182 140.186 127.894 140.357 128.567 140.187C129.239 140.018 129.786 139.53 130.03 138.881L128.049 138.135ZM139.821 106.873L140.32 104.816C139.281 104.564 138.217 105.127 137.84 106.127L139.821 106.873ZM157.359 113.307C158.495 113.582 159.64 112.885 159.915 111.749C160.191 110.613 159.493 109.469 158.357 109.193L157.359 113.307ZM45.6906 168.622L58.9813 181.544L61.9321 178.509L48.6414 165.587L45.6906 168.622ZM62.3081 181.052L82.0542 145.413L78.3515 143.362L58.6053 179L62.3081 181.052ZM90.7742 108.469L126.659 139.731L129.44 136.539L93.5547 105.277L90.7742 108.469ZM139.322 108.93L157.359 113.307L158.357 109.193L140.32 104.816L139.322 108.93ZM130.03 138.881L135.916 123.25L131.954 121.758L126.069 137.389L130.03 138.881ZM135.916 123.25L141.802 107.619L137.84 106.127L131.954 121.758L135.916 123.25Z" fill="#004794"/>
<circle cx="145.345" cy="59.7102" r="10.1067" fill="#004794"/>
</svg>
